<svg xmlns="http://www.w3.org/2000/svg" xmlns:xlink="http://www.w3.org/1999/xlink" id="Capa_1" x="0px" y="0px" width="50.641px" height="50.641px" viewBox="0 0 50.641 50.641" style="enable-background:new 0 0 50.641 50.641;" xml:space="preserve"><g>	<g>		<path d="M26.82,1.786c0.146-0.828-0.41-1.617-1.24-1.762c-0.826-0.146-1.615,0.41-1.76,1.239c-0.031,0.176-0.027,0.354,0,0.521    l1.5,8.625L26.82,1.786z"></path>		<path d="M41.89,4.989c-0.482-0.688-1.436-0.854-2.121-0.369c-0.146,0.104-0.271,0.23-0.369,0.369l-5.039,7.158l7.16-5.038    C42.207,6.625,42.373,5.677,41.89,4.989z"></path>		<path d="M11.24,4.987c-0.48-0.688-1.434-0.854-2.121-0.368C8.431,5.102,8.267,6.054,8.752,6.741    c0.104,0.146,0.23,0.271,0.367,0.367l7.16,5.039L11.24,4.987z"></path>		<path d="M25.32,12.463c-7.877,0-14.285,6.408-14.285,14.284c0,4.851,2.438,9.325,6.506,11.972c0.875,0.575,2.863,2.1,3.426,3.121    c0.886,1.615,3.22,1.856,4.531,1.856c1.32,0,3.66-0.248,4.506-1.91c0.414-0.812,2.104-2.312,3.146-3.102    c4.043-2.654,6.455-7.112,6.455-11.938C39.604,18.872,33.195,12.463,25.32,12.463z M30.91,35.37l-0.104,0.072    c-0.52,0.386-3,2.288-4.143,4.127c-0.229,0.061-0.633,0.127-1.17,0.127c-0.574,0-1.006-0.075-1.238-0.142    c-1.276-1.985-3.967-3.814-4.526-4.188c-2.939-1.91-4.693-5.135-4.693-8.623c0-5.67,4.613-10.284,10.285-10.284    c5.67,0,10.282,4.613,10.282,10.284C35.604,30.236,33.851,33.46,30.91,35.37z"></path>		<path d="M26.385,48.577h-2.131c-0.274,0-0.5,0.226-0.5,0.5c0,0.861,0.701,1.563,1.564,1.563c0.863,0,1.565-0.702,1.565-1.563    C26.886,48.802,26.662,48.577,26.385,48.577z"></path>		<path d="M26.608,31.071h-2.574c-0.193,0-0.354,0.157-0.354,0.352v2.451c0,0.192,0.157,0.354,0.354,0.354h2.574    c0.193,0,0.354-0.16,0.354-0.354v-2.451C26.959,31.229,26.802,31.071,26.608,31.071z"></path>		<path d="M26.713,20.597h-2.75c-0.195,0-0.391,0.142-0.391,0.335v0.019l0.44,8.658c0.019,0.192,0.193,0.37,0.39,0.37h1.868    c0.195,0,0.334-0.178,0.354-0.37l0.438-8.658v-0.019C27.067,20.737,26.908,20.597,26.713,20.597z"></path>		<path d="M26.812,44.581h-2.982c-0.709,0-1.281,0.574-1.281,1.284v0.521c0,0.71,0.572,1.282,1.281,1.282h2.982    c0.709,0,1.283-0.572,1.283-1.282v-0.521C28.095,45.155,27.521,44.581,26.812,44.581z"></path>	</g></g><g></g><g></g><g></g><g></g><g></g><g></g><g></g><g></g><g></g><g></g><g></g><g></g><g></g><g></g><g></g></svg>