<svg xmlns="http://www.w3.org/2000/svg" xmlns:xlink="http://www.w3.org/1999/xlink" id="Capa_1" x="0px" y="0px" width="59.25px" height="59.25px" viewBox="0 0 59.25 59.25" style="enable-background:new 0 0 59.25 59.25;" xml:space="preserve"><g>	<g>		<path d="M59.092,35.472c-0.303-0.606-7.694-14.893-29.465-14.893S0.464,34.863,0.158,35.472c-0.211,0.425-0.211,0.919,0,1.344    c0.306,0.606,7.697,14.892,29.468,14.892S58.79,37.425,59.092,36.816C59.303,36.391,59.303,35.894,59.092,35.472z M29.626,48.706    c-17.453,0-24.716-9.825-26.396-12.555c1.687-2.686,9.076-12.571,26.396-12.571c17.455,0,24.715,9.827,26.396,12.556    C54.336,38.819,46.946,48.706,29.626,48.706z"></path>		<path d="M37.68,41.11l-6.686-1.74c-0.041-0.012-0.08-0.021-0.121-0.022l-1.031-0.271c-0.318-0.084-0.656,0.01-0.892,0.242    c-0.229,0.23-0.319,0.571-0.233,0.891l1.57,5.813c0.043,0.161,0.129,0.304,0.242,0.414c0.203,0.2,0.494,0.305,0.793,0.257    c2.229-0.354,4.324-1.429,5.901-3.021c0.343-0.347,0.666-0.722,0.962-1.116c0.184-0.245,0.233-0.565,0.133-0.855    C38.217,41.411,37.979,41.186,37.68,41.11z"></path>		<path d="M31.728,33.301c0.01,0.034,0.021,0.067,0.032,0.103l0.295,1.08c0.043,0.157,0.127,0.3,0.24,0.409    c0.115,0.112,0.256,0.196,0.416,0.238c0.318,0.083,0.658-0.009,0.889-0.243l4.24-4.278c0.332-0.336,0.357-0.867,0.062-1.231    c-1.729-2.123-4.261-3.497-6.986-3.83c-0.309-0.037-0.609,0.081-0.812,0.313c-0.201,0.231-0.272,0.551-0.19,0.848L31.728,33.301z"></path>		<path d="M38.793,31.423c-0.303-0.058-0.613,0.039-0.83,0.257l-5.67,5.726c-0.231,0.234-0.322,0.577-0.231,0.896    c0.041,0.159,0.127,0.298,0.239,0.41c0.113,0.111,0.258,0.194,0.416,0.235l5.826,1.519c0.459,0.119,0.932-0.127,1.098-0.568    c0.966-2.576,0.902-5.392-0.172-7.926C39.348,31.686,39.096,31.482,38.793,31.423z"></path>		<path d="M27.198,37.82c-0.086-0.317-0.334-0.565-0.653-0.651c-0.32-0.084-0.66,0.008-0.894,0.241l-4.233,4.275    c-0.332,0.334-0.357,0.868-0.06,1.232c0.234,0.291,0.488,0.565,0.748,0.822c1.65,1.636,3.847,2.701,6.185,2.998    c0.307,0.04,0.61-0.076,0.811-0.311c0.201-0.229,0.277-0.549,0.195-0.848L27.198,37.82z"></path>		<path d="M21.218,30.868c0.11,0.109,0.25,0.192,0.408,0.234l7.754,2.091c0.319,0.085,0.66-0.008,0.894-0.24    c0.232-0.234,0.324-0.576,0.236-0.896l-1.589-5.781c-0.127-0.455-0.574-0.743-1.041-0.666c-2.207,0.363-4.283,1.435-5.847,3.014    c-0.321,0.323-0.623,0.671-0.899,1.029c-0.187,0.245-0.238,0.564-0.142,0.855C21.037,30.647,21.119,30.769,21.218,30.868z"></path>		<path d="M27,34.852c0.229-0.231,0.319-0.571,0.233-0.891c-0.086-0.314-0.332-0.562-0.649-0.647l-5.834-1.572    c-0.455-0.123-0.931,0.12-1.103,0.561c-1.004,2.604-0.953,5.454,0.141,8.023c0.05,0.11,0.117,0.211,0.201,0.294    c0.129,0.127,0.293,0.217,0.476,0.251c0.303,0.059,0.612-0.038,0.83-0.257L27,34.852z"></path>		<path d="M30.922,9.035c0.016-0.117,0.018-0.247,0-0.37c-0.102-0.716-0.766-1.213-1.48-1.109c-0.715,0.103-1.211,0.766-1.108,1.479    l1.295,9.065L30.922,9.035z"></path>		<path d="M16.619,19.773l-5.495-7.327c-0.072-0.096-0.162-0.188-0.261-0.263c-0.578-0.434-1.397-0.315-1.832,0.263    c-0.436,0.578-0.315,1.397,0.263,1.832L16.619,19.773z"></path>		<path d="M50.221,14.017c0.438-0.577,0.316-1.397-0.262-1.832c-0.578-0.433-1.397-0.315-1.832,0.263l-5.496,7.327l7.328-5.495    C50.055,14.207,50.147,14.117,50.221,14.017z"></path>	</g></g><g></g><g></g><g></g><g></g><g></g><g></g><g></g><g></g><g></g><g></g><g></g><g></g><g></g><g></g><g></g></svg>